<?xml version="1.0" encoding="UTF-8"?>
<svg width="16px" height="16px" viewBox="0 0 16 16" version="1.1" xmlns="http://www.w3.org/2000/svg" xmlns:xlink="http://www.w3.org/1999/xlink">
    <!-- Generator: Sketch 52.3 (67297) - http://www.bohemiancoding.com/sketch -->
    <title>ic_cancel</title>
    <desc>Created with Sketch.</desc>
    <g id="ic_cancel" stroke="none" stroke-width="1" fill="none" fill-rule="evenodd">
        <g fill="#9B9B9B" id="Path">
            <path d="M9.90157631,8.00003756 L15.6061644,2.29544281 C16.1312785,1.77032801 16.1312785,0.918950897 15.6061644,0.393911223 C15.0810502,-0.131203576 14.2297492,-0.131203576 13.704635,0.393911223 L7.99997183,6.0985811 L2.29530865,0.393836099 C1.77019446,-0.1312787 0.918893476,-0.1312787 0.393779294,0.393836099 C-0.131259765,0.918950897 -0.131259765,1.77032801 0.393779294,2.29536768 L6.09844248,7.99996244 L0.393779294,13.7046323 C-0.131259765,14.2297471 -0.131259765,15.0811242 0.393779294,15.6061639 C0.918893476,16.1312787 1.77019446,16.1312787 2.29530865,15.6061639 L7.99997183,9.90149402 L13.704635,15.6061639 C14.2296741,16.1312787 15.0810502,16.1312787 15.6061644,15.6061639 C16.1312785,15.0810491 16.1312785,14.2297471 15.6061644,13.7046323 L9.90157631,8.00003756 Z"></path>
        </g>
    </g>
</svg>