<?xml version="1.0" encoding="UTF-8"?>
<svg width="24px" height="24px" viewBox="0 0 24 24" version="1.1" xmlns="http://www.w3.org/2000/svg" xmlns:xlink="http://www.w3.org/1999/xlink">
    <!-- Generator: Sketch 52.3 (67297) - http://www.bohemiancoding.com/sketch -->
    <title>ic_close</title>
    <desc>Created with Sketch.</desc>
    <g id="ic_close" stroke="none" stroke-width="1" fill="none" fill-rule="evenodd">
        <g fill="#1D1D1B" id="Path">
            <path d="M10.852875,11.91975 L0.229875,22.54275 C-0.06525,22.837875 -0.06525,23.316 0.229875,23.611125 C0.37725,23.758875 0.57075,23.832375 0.763875,23.832375 C0.957375,23.832375 1.1505,23.758875 1.297875,23.611125 L12.00075,12.90825 L22.703625,23.611125 C22.851375,23.758875 23.0445,23.832375 23.237625,23.832375 C23.43075,23.832375 23.62425,23.758875 23.771625,23.611125 C24.06675,23.316 24.06675,22.837875 23.771625,22.54275 L13.149,11.91975 L23.77875,1.28925 C24.073875,0.994125 24.073875,0.516 23.77875,0.220875 C23.483625,-0.073875 23.0055,-0.073875 22.71075,0.220875 L12.001125,10.93125 L1.290375,0.22125 C0.99525,-0.0735 0.5175,-0.0735 0.222375,0.22125 C-0.07275,0.516375 -0.07275,0.9945 0.222375,1.289625 L10.852875,11.91975 Z"></path>
        </g>
    </g>
</svg>