<?xml version="1.0" encoding="UTF-8"?>
<svg width="30px" height="24px" viewBox="0 0 30 24" version="1.1" xmlns="http://www.w3.org/2000/svg" xmlns:xlink="http://www.w3.org/1999/xlink">
    <!-- Generator: Sketch 52.3 (67297) - http://www.bohemiancoding.com/sketch -->
    <title>ic_prev</title>
    <desc>Created with Sketch.</desc>
    <g id="ic_prev" stroke="none" stroke-width="1" fill="none" fill-rule="evenodd">
        <g transform="translate(14.666667, 12.000000) scale(-1, 1) translate(-14.666667, -12.000000) translate(-0.000000, 0.000000)" fill="#000000" id="Path">
            <path d="M28.5644444,12.2817778 L0.444444444,12.2817778 C0.199111111,12.2817778 0,12.0826667 0,11.8373333 C0,11.592 0.199111111,11.3928889 0.444444444,11.3928889 L28.5644444,11.3928889 C28.8097778,11.3928889 29.0088889,11.592 29.0088889,11.8373333 C29.0088889,12.0826667 28.8097778,12.2817778 28.5644444,12.2817778 Z"></path>
            <path d="M17.4204444,23.4248889 C17.3066667,23.4248889 17.1928889,23.3813333 17.1057778,23.2951111 C16.9324444,23.1217778 16.9324444,22.84 17.1057778,22.6666667 L27.936,11.8364444 L17.1057778,1.00977778 C16.9324444,0.836444444 16.9324444,0.554666667 17.1057778,0.381333333 C17.2791111,0.208 17.5608889,0.208 17.7342222,0.381333333 L28.8782222,11.5217778 C28.9617778,11.6053333 29.008,11.7182222 29.008,11.8364444 C29.008,11.9546667 28.9608889,12.0675556 28.8782222,12.1511111 L17.7342222,23.2942222 C17.648,23.3813333 17.5342222,23.4248889 17.4204444,23.4248889 Z"></path>
        </g>
    </g>
</svg>