<?xml version="1.0" encoding="UTF-8"?>
<svg width="100px" height="100px" viewBox="0 0 100 100" version="1.1" xmlns="http://www.w3.org/2000/svg" xmlns:xlink="http://www.w3.org/1999/xlink">
    <!-- Generator: Sketch 52.3 (67297) - http://www.bohemiancoding.com/sketch -->
    <title>ic_profile_signup</title>
    <desc>Created with Sketch.</desc>
    <g id="ic_profile_signup" stroke="none" stroke-width="1" fill="none" fill-rule="evenodd">
        <g id="ic_profile" fill-rule="nonzero">
            <path d="M50.0067682,5.92118946e-15 C22.389098,5.92118946e-15 0,22.3860677 0,50 C0,77.6139323 22.389098,100 50.0067682,100 C51.5133198,100 53.014174,99.9324544 54.5077028,99.7981771 C55.8962372,99.6736654 57.2725629,99.4832356 58.6383075,99.2447917 L59.1632808,99.1520183 C84.5549012,94.4140625 102.160637,71.1206054 99.785641,45.4028321 C97.410645,19.6850585 75.8370872,0.00813802083 50.0067682,5.92118946e-15 Z M45.9892974,96.4900717 L45.8712802,96.4900717 C44.574718,96.3753254 43.2879226,96.2019856 42.0125221,95.9798177 C41.9392701,95.9667969 41.8660181,95.9586587 41.7943938,95.9448242 C40.54748,95.7218425 39.3135893,95.4451498 38.0919068,95.1220704 L37.7964568,95.0463867 C36.6048893,94.7233073 35.4263444,94.3481446 34.2648916,93.9314779 C34.1444326,93.8883462 34.0231595,93.8500977 33.9027007,93.8053385 C32.7640374,93.3870442 31.6457219,92.9182942 30.5444987,92.4112956 C30.4077614,92.3502604 30.2710241,92.2916667 30.1342869,92.2265625 C29.0542253,91.7268879 27.9953255,91.1637371 26.9567735,90.5712892 C26.8102693,90.4882812 26.6621374,90.4052733 26.515633,90.3230794 C25.4933592,89.7265625 24.494689,89.0869142 23.5147387,88.4114583 C23.3666065,88.3081054 23.2168467,88.2080079 23.0695286,88.104655 C22.1066704,87.421875 21.1682296,86.6967773 20.2542061,85.9383137 L20.0027073,85.7185873 L20.0027073,71.6666667 C20.014916,61.546224 28.2167096,53.3455404 38.3385223,53.3333333 L61.6750141,53.3333333 C71.7968268,53.3455404 79.9986204,61.546224 80.0108291,71.6666667 L80.0108291,85.7202148 L79.789445,85.9049479 C78.8575155,86.6829427 77.9011686,87.4186198 76.9187765,88.1136067 C76.7885505,88.2047525 76.6566968,88.2918294 76.5272847,88.3813477 C75.5359397,89.0698242 74.5201773,89.7176106 73.4799973,90.3263346 C73.3497713,90.4020183 73.2162897,90.4736329 73.0868776,90.5485025 C72.0328614,91.1482748 70.9609389,91.714681 69.8678547,92.224935 C69.7425123,92.2835287 69.6163558,92.3380533 69.4893855,92.3917644 C68.3792092,92.9036458 67.251127,93.3748373 66.1043245,93.7963867 C65.9903769,93.8387044 65.8756152,93.8753254 65.7706205,93.9152019 C64.6034705,94.333496 63.420042,94.7119142 62.2219632,95.036621 L61.9346522,95.1082356 C60.711342,95.431315 59.4766372,95.7096354 58.2280957,95.933431 C58.1564715,95.9464519 58.0848472,95.9554037 58.0132229,95.9667969 C56.7361946,96.1897787 55.4477715,96.3631185 54.1503955,96.4786783 L54.0323781,96.4786783 C52.6991899,96.5934246 51.3651877,96.6552733 50.0149072,96.6552733 C48.664627,96.6552733 47.320044,96.6048177 45.9892974,96.4900717 Z M83.3446137,82.6302083 L83.3446137,71.6666667 C83.3307772,59.7062175 73.6370823,50.0138346 61.6750141,50 L38.3385223,50 C26.3764541,50.0138346 16.6827592,59.7062175 16.6689227,71.6666667 L16.6689227,82.6285808 C-1.28435342,64.3074544 -1.08413111,34.9332683 17.1165746,16.8579102 C35.3172801,-1.21663417 64.6962564,-1.21663417 82.8969619,16.8579102 C101.097668,34.9332683 101.29789,64.3074544 83.3446137,82.6285808 L83.3446137,82.6302083 Z" id="Shape" fill="#212121"></path>
            <path d="M50,13.3333333 C40.7950846,13.3333333 33.3333333,20.7950846 33.3333333,30 C33.3333333,39.2049154 40.7950846,46.6666667 50,46.6666667 C59.2049154,46.6666667 66.6666667,39.2049154 66.6666667,30 C66.656901,20.7991537 59.2008462,13.343099 50,13.3333333 Z M50,43.3333333 C42.635905,43.3333333 36.6666667,37.364095 36.6666667,30 C36.6666667,22.635905 42.635905,16.6666667 50,16.6666667 C57.364095,16.6666667 63.3333333,22.635905 63.3333333,30 C63.3251954,37.360026 57.360026,43.3251954 50,43.3333333 Z" id="Shape" fill="#4A4A4A"></path>
        </g>
    </g>
</svg>