<?xml version="1.0" encoding="UTF-8"?>
<svg width="100px" height="100px" viewBox="0 0 100 100" version="1.1" xmlns="http://www.w3.org/2000/svg" xmlns:xlink="http://www.w3.org/1999/xlink">
    <!-- Generator: Sketch 52.3 (67297) - http://www.bohemiancoding.com/sketch -->
    <title>ic_profile_add_pic</title>
    <desc>Created with Sketch.</desc>
    <defs>
        <linearGradient x1="7.84548746%" y1="23.1920487%" x2="88.4475174%" y2="77.518948%" id="linearGradient-1">
            <stop stop-color="#11209F" offset="0%"></stop>
            <stop stop-color="#B800DE" offset="52.0231214%"></stop>
            <stop stop-color="#F5A623" offset="100%"></stop>
        </linearGradient>
    </defs>
    <g id="ic_profile_add_pic" stroke="none" stroke-width="1" fill="none" fill-rule="evenodd">
        <g id="ic_profile" fill="url(#linearGradient-1)" fill-rule="nonzero">
            <path d="M49.9986667,0 C22.3856667,0 0.000333333333,22.386 0.000333333333,49.999 C0.000333333333,77.6113333 22.3856667,99.999 49.9986667,99.999 C77.6116667,99.999 99.9986667,77.6113333 99.9986667,49.999 C99.9986667,22.3853333 77.6116667,0 49.9986667,0 Z M49.9986667,19.7156667 C58.3423333,19.7156667 65.1073333,26.4796667 65.1073333,34.824 C65.1073333,43.1693333 58.3433333,49.9333333 49.9986667,49.9333333 C41.654,49.9333333 34.8903333,43.1693333 34.8903333,34.824 C34.8903333,26.4796667 41.655,19.7156667 49.9986667,19.7156667 Z M56.2306667,70.8523333 L56.2303333,70.8523333 L56.2303333,76.3223333 L56.2303333,76.9983333 L50.1423333,76.9983333 L49.8543333,76.9983333 L27.9533333,76.9983333 C27.9533333,62.107 36.054,56.808 41.3683333,52.0506667 C43.943,53.434 46.879,54.2276667 49.999,54.251 C53.1183333,54.2276667 56.055,53.434 58.628,52.0506667 C61.009,54.1816667 63.9456667,56.4243333 66.465,59.586 L64.04,59.586 L64.04,63.044 L64.04,67.3943333 L59.6886667,67.3943333 L56.2306667,67.3943333 L56.2306667,70.8523333 Z M72.9673333,76.3223333 L72.9673333,84.1306667 L67.4973333,84.1306667 L67.4973333,76.3223333 L59.688,76.3223333 L59.688,70.8523333 L67.4973333,70.8523333 L67.4973333,63.044 L72.9666667,63.044 L72.9666667,70.8523333 L80.7743333,70.8523333 L80.7743333,76.3223333 L72.9673333,76.3223333 Z" id="Shape"></path>
        </g>
    </g>
</svg>